# Blender v2.71 (sub 0) OBJ File: 'asteroidA.blend'
# www.blender.org
mtllib asteroidA.mtl
o Cube
v 0.000000 -4.692026 -0.000001
v 1.970761 -4.563998 -0.000000
v -0.000000 -5.742103 2.416408
v -1.667097 -3.761239 -0.000001
v 0.000001 -3.639743 -1.621139
v 1.642908 -3.809757 -1.642908
v 2.062945 -4.839892 2.062945
v -2.012190 -4.715415 2.012189
v -1.344803 -3.078663 -1.344804
v -0.000001 4.516587 0.000001
v 0.000000 3.541291 -1.583895
v -1.848246 4.240117 0.000000
v -0.000001 3.871364 1.708756
v 1.744573 3.966056 0.000002
v 1.182412 2.680403 -1.182411
v -1.524710 3.519879 -1.524709
v -2.107219 4.948469 2.107218
v 1.091054 2.456352 1.091057
v 4.769822 0.000000 0.000002
v 5.593158 0.000000 -2.360065
v 3.931283 1.731421 0.000002
v 4.137290 0.000000 1.809350
v 5.056849 -2.157194 0.000001
v 5.098309 -2.168315 -2.168314
v 3.778039 1.629974 -1.629972
v 3.490510 1.512735 1.512736
v 4.844327 -2.064754 2.064755
v -0.000002 0.000000 4.051688
v 1.595623 0.000000 3.572295
v -0.000002 1.727489 3.920890
v -1.552926 0.000000 3.459415
v -0.000001 -1.896858 4.368631
v 1.735005 -1.735006 4.035629
v 1.543251 1.543253 3.565358
v -1.347671 1.347670 3.085693
v -1.656222 -1.656220 3.842407
v -3.663871 0.000000 -0.000001
v -4.602220 0.000000 1.985218
v -4.100120 1.795287 -0.000001
v -3.029192 0.000000 -1.390183
v -3.573311 -1.596008 -0.000001
v -2.878597 -1.263226 1.263225
v -4.290225 1.838818 1.838817
v -2.984055 1.306227 -1.306228
v -3.198364 -1.393612 -1.393613
v 0.000001 0.000000 -5.128728
v 2.022957 0.000000 -4.701978
v 0.000001 -2.059508 -4.798609
v -1.766639 0.000000 -4.024388
v 0.000001 1.697845 -3.842523
v 1.405822 1.405821 -3.228306
v 1.738788 -1.738787 -4.044900
v -1.690336 -1.690336 -3.926077
v -1.472400 1.472401 -3.391594
v 3.265050 -3.265050 -1.636514
v 4.307601 -4.307601 0.000000
v 3.972959 -3.972960 2.015528
v 1.483883 -2.979968 -2.979968
v 0.000001 -2.919521 -2.919522
v -1.212938 -2.473907 -2.473908
v 3.675098 -1.856053 -3.675097
v 3.693121 0.000000 -3.693119
v 3.186326 1.594366 -3.186324
v 1.753999 -3.484485 3.484485
v -0.000001 -4.434164 4.434163
v -1.948376 -3.847533 3.847532
v 2.998821 -1.493977 2.998823
v 3.016299 0.000000 3.016301
v 3.024460 1.507704 3.024463
v -2.918252 -2.918252 1.450838
v -2.825498 -2.825498 -0.000001
v -2.550535 -2.550535 -1.253966
v -2.331668 -1.136784 2.331666
v -2.985013 0.000000 2.985012
v -2.528013 1.241906 2.528011
v -2.735726 -1.353116 -2.735727
v -3.263288 0.000000 -3.263289
v -2.503309 1.228680 -2.503310
v 2.267120 2.267120 -1.102224
v 2.109601 2.109601 0.000002
v 2.304004 2.304005 1.121975
v 1.159057 2.373267 -2.373266
v 0.000001 2.226393 -2.226393
v -1.090820 2.245818 -2.245818
v 1.283345 2.605413 2.605415
v -0.000002 3.036678 3.036679
v -1.609769 3.215091 3.215091
v -3.861452 3.861450 1.955826
v -3.893044 3.893043 -0.000000
v -3.081268 3.081268 -1.538119
v 3.040006 -3.040006 -3.040005
v 3.046113 -3.046113 3.046113
v -2.320933 -2.320933 2.320931
v -2.233102 -2.233103 -2.233104
v 2.202595 2.202595 -2.202593
v 2.176891 2.176893 2.176893
v -2.732284 2.732283 2.732282
v -2.289318 2.289319 -2.289319
vn -0.099600 -0.911700 -0.398700
vn 0.249800 -0.736600 -0.628400
vn -0.055900 -0.851300 -0.521700
vn -0.043900 -0.987500 -0.151300
vn 0.376700 -0.915800 -0.139300
vn 0.606200 -0.505700 0.613900
vn 0.408100 -0.887300 0.215100
vn 0.420500 -0.453400 0.785900
vn -0.332500 -0.828800 -0.450000
vn -0.878500 -0.469800 -0.086200
vn -0.373500 -0.833500 0.407100
vn -0.868700 0.227900 0.439900
vn -0.425300 -0.761800 -0.488600
vn -0.450400 -0.764100 -0.461900
vn -0.402800 -0.871600 -0.279400
vn -0.296500 -0.876100 -0.380200
vn 0.194600 0.616600 -0.762900
vn 0.620800 0.756100 -0.207200
vn 0.967700 0.190300 0.165500
vn 0.171800 0.982800 -0.067700
vn -0.029400 0.901400 -0.432000
vn -0.223100 0.808500 -0.544500
vn 0.024300 0.498700 -0.866400
vn 0.051300 0.713800 -0.698500
vn -0.139600 0.933300 -0.330900
vn 0.152400 0.562900 0.812300
vn -0.528000 0.849000 0.022200
vn -0.446900 0.158500 0.880400
vn 0.816300 0.540400 0.204000
vn 0.050800 0.570500 0.819800
vn 0.276700 0.952300 -0.128900
vn 0.488900 0.857200 0.162200
vn 0.975100 -0.220800 0.019800
vn 0.725500 -0.013700 -0.688100
vn 0.255800 -0.733200 -0.630100
vn 0.806800 -0.549400 -0.217500
vn 0.640000 0.760800 -0.107500
vn 0.436700 0.879700 0.188100
vn 0.525200 0.404900 -0.748500
vn 0.465900 0.881300 -0.079000
vn 0.851000 0.424500 0.309300
vn 0.865600 0.422700 0.268300
vn 0.591800 0.770800 -0.236100
vn 0.505800 0.847100 0.163000
vn 0.939700 0.331900 0.081900
vn 0.886200 -0.410200 0.215300
vn 0.447700 -0.015700 0.894100
vn 0.761700 0.042900 0.646500
vn 0.157600 0.266600 0.950800
vn 0.636000 -0.016500 0.771500
vn 0.560400 -0.243300 0.791700
vn 0.309300 0.038400 0.950200
vn 0.225800 0.012000 0.974100
vn 0.429000 0.661200 0.615400
vn 0.342900 -0.006900 0.939400
vn 0.493700 0.851200 0.178300
vn -0.562200 0.299400 0.770900
vn -0.414900 0.444800 0.793800
vn 0.152100 0.553200 0.819100
vn -0.325800 -0.172100 0.929600
vn -0.263600 0.232900 0.936100
vn -0.277200 0.039200 0.960000
vn -0.809600 -0.562200 0.168700
vn -0.973900 -0.010900 0.226800
vn -0.406500 -0.803400 0.435200
vn -0.462200 -0.821500 0.333800
vn -0.851100 -0.517700 -0.087500
vn -0.820300 -0.012600 0.571800
vn -0.981800 0.158200 -0.105200
vn -0.971500 0.212100 -0.105500
vn -0.210800 0.405000 0.889700
vn -0.678300 -0.190200 0.709700
vn -0.745700 0.068400 -0.662700
vn -0.702300 0.634300 -0.323100
vn -0.901200 -0.104300 -0.420600
vn -0.508500 0.267700 -0.818400
vn -0.963100 0.117500 -0.242100
vn -0.820300 -0.494100 -0.288200
vn -0.841700 -0.446500 -0.303600
vn -0.666300 -0.618500 -0.416500
vn 0.391800 0.742100 -0.543900
vn -0.009300 0.300200 -0.953800
vn -0.175600 0.626400 -0.759400
vn 0.207300 0.911200 -0.356100
vn 0.426000 -0.379900 -0.821100
vn 0.401400 -0.642500 -0.652700
vn 0.517000 -0.013300 -0.855900
vn -0.051800 -0.450400 -0.891300
vn -0.469900 -0.072400 -0.879700
vn -0.723000 -0.476800 -0.499900
vn -0.437800 -0.817500 -0.374200
vn -0.315200 -0.600000 -0.735300
vn -0.479700 0.425600 -0.767300
vn 0.024700 0.824700 -0.565000
vn -0.575200 0.657100 -0.487200
vn 0.042500 0.189400 -0.981000
vn 0.054400 -0.837500 -0.543700
vn 0.098400 -0.896800 -0.431300
vn -0.096500 -0.870400 -0.482800
vn 0.271700 -0.802900 -0.530600
vn 0.059500 -0.915500 -0.397800
vn 0.418000 -0.762300 0.494100
vn 0.108000 -0.984700 -0.136500
vn 0.313200 -0.652400 0.690100
vn -0.455800 -0.816300 -0.354800
vn -0.567200 -0.702200 -0.430300
vn -0.473400 -0.739100 0.479100
vn -0.897500 -0.385800 0.213600
vn -0.419300 -0.761500 -0.494300
vn -0.421300 -0.793100 -0.439900
vn -0.551700 -0.682900 -0.478800
vn -0.383500 -0.794700 -0.470400
vn 0.623700 0.665600 -0.409800
vn -0.167100 0.432800 -0.885800
vn 0.278100 0.581500 -0.764500
vn 0.361100 0.901200 -0.239500
vn -0.126400 0.844700 -0.520100
vn -0.149600 0.881400 -0.448100
vn -0.041000 0.438700 -0.897700
vn -0.121300 0.457300 -0.881000
vn 0.478500 0.821500 0.310200
vn 0.470600 0.747000 0.469500
vn -0.157800 0.930000 -0.332000
vn -0.341300 0.434700 0.833400
vn 0.166900 0.529000 0.832000
vn 0.961500 0.189100 -0.199400
vn 0.813600 0.492300 0.309400
vn 0.126700 0.985500 -0.113100
vn 0.936800 0.124700 0.326800
vn 0.562800 -0.199400 -0.802200
vn 0.944100 -0.329000 0.019700
vn 0.339700 -0.804300 -0.487600
vn 0.858700 0.415900 0.299600
vn 0.202600 0.976000 -0.079800
vn 0.592300 0.768300 -0.242800
vn 0.339200 0.928700 -0.150200
vn 0.858500 0.415800 0.300100
vn 0.732700 -0.007700 0.680500
vn 0.199300 0.960000 0.196800
vn 0.510600 0.844800 0.160200
vn 0.936600 0.124600 0.327400
vn 0.938500 -0.327000 0.111200
vn 0.694800 0.317700 0.645300
vn 0.391800 -0.202100 0.897600
vn 0.284100 0.158000 0.945700
vn 0.351100 0.267800 0.897200
vn 0.186100 0.025400 0.982200
vn 0.643300 -0.223700 0.732200
vn 0.287000 0.072300 0.955200
vn 0.249600 0.542000 0.802500
vn 0.364400 0.016600 0.931100
vn 0.265400 0.681400 0.682100
vn -0.355500 0.070600 0.932000
vn -0.300300 0.297100 0.906400
vn -0.495800 -0.129100 0.858800
vn -0.415200 -0.120800 0.901700
vn -0.352100 0.154300 0.923200
vn -0.299500 0.024600 0.953800
vn -0.305800 0.232600 0.923200
vn -0.890400 0.119700 0.439200
vn -0.902900 -0.051200 -0.426800
vn -0.412400 -0.620400 0.667100
vn -0.881900 0.073900 0.465500
vn -0.891300 0.072100 0.447700
vn -0.883000 -0.214600 -0.417400
vn -0.995000 0.098200 0.017700
vn -0.519500 0.155000 0.840300
vn -0.357700 0.021800 0.933600
vn -0.888200 -0.215800 -0.405500
vn -0.991900 0.026300 0.124000
vn -0.744500 0.073500 -0.663600
vn -0.925600 -0.098400 -0.365400
vn -0.908500 -0.051500 -0.414800
vn -0.817100 -0.497000 -0.292000
vn -0.985200 0.119300 0.123100
vn -0.817500 -0.493600 -0.296700
vn 0.165800 0.595500 -0.786100
vn 0.343600 0.747200 -0.568900
vn 0.316200 0.901700 -0.294900
vn -0.051500 0.654000 -0.754800
vn 0.203900 -0.154900 -0.966600
vn -0.053900 -0.908000 -0.415600
vn 0.152500 -0.371100 -0.916000
vn 0.102200 -0.659800 -0.744500
vn -0.525200 -0.134700 -0.840200
vn -0.452100 -0.072100 -0.889000
vn -0.366900 -0.863700 -0.345400
vn -0.545100 -0.799500 -0.252200
vn -0.319000 0.572300 -0.755500
vn -0.234000 0.924100 -0.302200
vn -0.409700 0.428100 -0.805600
vn -0.499600 0.786000 -0.364200
usemtl Material
s off
f 5//1 6//1 2//1
f 6//2 55//2 56//2
f 59//3 58//3 6//3
f 58//4 91//4 55//4
f 2//5 7//5 3//5
f 7//6 64//6 65//6
f 56//7 57//7 7//7
f 57//8 92//8 64//8
f 3//9 8//9 4//9
f 8//10 70//10 71//10
f 65//11 66//11 8//11
f 66//12 93//12 70//12
f 1//13 4//13 9//13
f 9//14 60//14 59//14
f 71//15 72//15 9//15
f 72//16 94//16 60//16
f 10//17 14//17 15//17
f 11//18 15//18 82//18
f 14//19 80//19 79//19
f 79//20 95//20 82//20
f 11//21 16//21 12//21
f 16//22 90//22 89//22
f 83//23 84//23 16//23
f 84//24 98//24 90//24
f 10//25 12//25 17//25
f 17//26 87//26 86//26
f 89//27 88//27 17//27
f 88//28 97//28 87//28
f 10//29 13//29 18//29
f 14//30 18//30 81//30
f 86//31 85//31 18//31
f 85//32 96//32 81//32
f 23//33 24//33 20//33
f 24//34 61//34 62//34
f 56//35 55//35 24//35
f 55//36 91//36 61//36
f 20//37 25//37 21//37
f 25//38 79//38 80//38
f 20//39 62//39 63//39
f 63//40 95//40 79//40
f 21//41 26//41 22//41
f 22//42 26//42 69//42
f 80//43 81//43 26//43
f 81//44 96//44 69//44
f 22//45 27//45 23//45
f 27//46 57//46 56//46
f 68//47 67//47 27//47
f 67//48 92//48 57//48
f 32//49 33//49 29//49
f 33//50 67//50 68//50
f 65//51 64//51 33//51
f 64//52 92//52 67//52
f 29//53 34//53 30//53
f 34//54 85//54 86//54
f 68//55 69//55 34//55
f 69//56 96//56 85//56
f 30//57 35//57 31//57
f 35//58 75//58 74//58
f 30//59 86//59 87//59
f 87//60 97//60 75//60
f 31//61 36//61 32//61
f 36//62 66//62 65//62
f 74//63 73//63 36//63
f 73//64 93//64 66//64
f 41//65 42//65 38//65
f 38//66 42//66 73//66
f 41//67 71//67 70//67
f 70//68 93//68 73//68
f 38//69 43//69 39//69
f 39//70 43//70 88//70
f 74//71 75//71 43//71
f 75//72 97//72 88//72
f 39//73 44//73 40//73
f 44//74 78//74 77//74
f 89//75 90//75 44//75
f 90//76 98//76 78//76
f 40//77 45//77 41//77
f 45//78 72//78 71//78
f 77//79 76//79 45//79
f 76//80 94//80 72//80
f 50//81 51//81 47//81
f 51//82 63//82 62//82
f 83//83 82//83 51//83
f 82//84 95//84 63//84
f 47//85 52//85 48//85
f 48//86 52//86 58//86
f 47//87 62//87 61//87
f 61//88 91//88 58//88
f 48//89 53//89 49//89
f 53//90 76//90 77//90
f 48//91 59//91 60//91
f 60//92 94//92 76//92
f 46//93 49//93 54//93
f 54//94 84//94 83//94
f 77//95 78//95 54//95
f 78//96 98//96 84//96
f 1//97 5//97 2//97
f 2//98 6//98 56//98
f 5//99 59//99 6//99
f 6//100 58//100 55//100
f 1//101 2//101 3//101
f 3//102 7//102 65//102
f 2//103 56//103 7//103
f 7//104 57//104 64//104
f 1//105 3//105 4//105
f 4//106 8//106 71//106
f 3//107 65//107 8//107
f 8//108 66//108 70//108
f 5//109 1//109 9//109
f 5//110 9//110 59//110
f 4//111 71//111 9//111
f 9//112 72//112 60//112
f 11//113 10//113 15//113
f 83//114 11//114 82//114
f 15//115 14//115 79//115
f 15//116 79//116 82//116
f 10//117 11//117 12//117
f 12//118 16//118 89//118
f 11//119 83//119 16//119
f 16//120 84//120 90//120
f 13//121 10//121 17//121
f 13//122 17//122 86//122
f 12//123 89//123 17//123
f 17//124 88//124 87//124
f 14//125 10//125 18//125
f 80//126 14//126 81//126
f 13//127 86//127 18//127
f 18//128 85//128 81//128
f 19//129 23//129 20//129
f 20//130 24//130 62//130
f 23//131 56//131 24//131
f 24//132 55//132 61//132
f 19//133 20//133 21//133
f 21//134 25//134 80//134
f 25//135 20//135 63//135
f 25//136 63//136 79//136
f 19//137 21//137 22//137
f 68//138 22//138 69//138
f 21//139 80//139 26//139
f 26//140 81//140 69//140
f 19//141 22//141 23//141
f 23//142 27//142 56//142
f 22//143 68//143 27//143
f 27//144 67//144 57//144
f 28//145 32//145 29//145
f 29//146 33//146 68//146
f 32//147 65//147 33//147
f 33//148 64//148 67//148
f 28//149 29//149 30//149
f 30//150 34//150 86//150
f 29//151 68//151 34//151
f 34//152 69//152 85//152
f 28//153 30//153 31//153
f 31//154 35//154 74//154
f 35//155 30//155 87//155
f 35//156 87//156 75//156
f 28//157 31//157 32//157
f 32//158 36//158 65//158
f 31//159 74//159 36//159
f 36//160 73//160 66//160
f 37//161 41//161 38//161
f 74//162 38//162 73//162
f 42//163 41//163 70//163
f 42//164 70//164 73//164
f 37//165 38//165 39//165
f 89//166 39//166 88//166
f 38//167 74//167 43//167
f 43//168 75//168 88//168
f 37//169 39//169 40//169
f 40//170 44//170 77//170
f 39//171 89//171 44//171
f 44//172 90//172 78//172
f 37//173 40//173 41//173
f 41//174 45//174 71//174
f 40//175 77//175 45//175
f 45//176 76//176 72//176
f 46//177 50//177 47//177
f 47//178 51//178 62//178
f 50//179 83//179 51//179
f 51//180 82//180 63//180
f 46//181 47//181 48//181
f 59//182 48//182 58//182
f 52//183 47//183 61//183
f 52//184 61//184 58//184
f 46//185 48//185 49//185
f 49//186 53//186 77//186
f 53//187 48//187 60//187
f 53//188 60//188 76//188
f 50//189 46//189 54//189
f 50//190 54//190 83//190
f 49//191 77//191 54//191
f 54//192 78//192 84//192
