# Blender v2.71 (sub 0) OBJ File: 'arwing.blend'
# www.blender.org
mtllib arwing.mtl
o Arwing_SNES_high_poly_original
v 70.050499 -27.795788 -67.902008
v 12.925200 47.854214 -89.351791
v 13.188800 12.804396 31.743902
v -69.998398 -27.795889 -67.902008
v -14.139100 12.804396 31.743902
v -14.139100 47.854214 -89.351791
v -0.019700 13.581223 -137.983307
v 0.678100 9.580419 -109.806297
v 34.969002 -10.668688 -75.509903
v -33.568100 -10.668688 -75.509903
v -0.667900 -14.825555 341.795807
v 80.939003 -33.498989 -67.785110
v 70.027100 -29.088589 -67.785210
v -70.002602 -29.088589 -67.785210
v -81.662201 -33.498989 -67.785210
v -0.361600 -69.009209 55.403988
v 138.533798 74.016029 -202.581787
v 103.519501 19.618807 -46.893097
v 103.832199 -82.610504 68.779182
v 70.874001 -26.961489 -66.909805
v 102.318199 -26.976389 -66.909805
v 138.804092 -27.870388 -69.976410
v 189.575897 -63.622166 -207.699615
v 189.101593 -62.617565 -207.537613
v 138.804092 -27.277189 -69.976410
v 238.830307 -96.395950 -341.306519
v 70.049698 -27.870388 -67.900810
v 70.049698 -27.277189 -67.900810
v 137.204803 -62.331978 -138.047913
v 205.318207 -62.639565 -217.011414
v 123.543999 -41.491093 -48.120209
v 89.345001 -41.491093 -48.279308
v -138.482498 74.016029 -202.581787
v -103.780899 -82.610504 68.779182
v -103.468300 19.618807 -46.893097
v -70.822800 -26.961489 -66.909805
v -102.266998 -26.976389 -66.909805
v -138.752808 -27.870388 -69.976410
v -138.752808 -27.277189 -69.976410
v -189.050293 -62.617565 -207.537613
v -189.524704 -63.622166 -207.699615
v -238.779007 -96.396049 -341.306519
v -69.998398 -27.277189 -67.900810
v -69.998398 -27.870388 -67.900810
v -137.153503 -62.331978 -138.047913
v -205.266998 -62.639565 -217.011414
v -89.293701 -41.491093 -48.279308
v -123.492798 -41.491093 -48.120209
vt 1.000000 0.000000
vt 0.000000 1.000000
vt 0.000000 0.000000
vt 1.000000 1.000000
vt 1.000000 0.500000
vt 0.000000 0.086700
vt 0.000000 0.500000
vt 0.000000 0.498100
vt 0.028900 0.505900
vt 0.001600 0.972800
vt 0.958100 0.958100
vt 0.501900 0.498100
vt 138.533798 202.581802
vt 103.519501 46.893101
vt 103.832199 -68.779198
vt 70.874001 66.909798
vt 102.318199 66.909798
vt -138.482498 202.581802
vt -103.780899 -68.779198
vt -103.468300 46.893101
vt -70.822800 66.909798
vt -102.266998 66.909798
vn 0.760000 0.624700 0.179200
vn -0.766700 0.616700 0.178500
vn 0.000000 0.960600 0.278000
vn 0.000000 0.817400 -0.576100
vn 0.462900 0.884900 0.051900
vn 0.000000 0.996100 0.088800
vn -0.689600 0.718100 0.094000
vn 0.000000 -0.090000 -0.995900
vn -0.374500 -0.926600 -0.032400
vn 0.353700 -0.935000 -0.027300
vn -0.438400 0.897600 0.045800
vn 0.683400 0.723800 0.095000
vn 0.753000 0.426500 -0.501000
vn 0.662400 -0.736000 0.140000
vn -0.665100 -0.733900 0.138100
vn 0.000000 -0.951300 -0.308300
vn -0.036100 -0.089300 -0.995400
vn 0.034100 -0.090000 -0.995400
vn -0.754700 0.412700 -0.510000
vn -0.414900 -0.902200 -0.117800
vn 0.000000 -0.406000 -0.913900
vn 0.397500 -0.907100 -0.138600
vn 0.894200 0.385400 0.227900
vn -0.850900 0.000000 -0.525300
vn 0.013600 -0.892200 0.451400
vn -0.938300 0.000100 -0.345900
vn 0.537600 -0.748200 0.388800
vn 0.243500 -0.917400 0.314800
vn 0.502100 0.098500 0.859200
vn -0.175000 0.937200 -0.301700
vn -0.571100 -0.807000 -0.150300
vn 0.002700 -0.820200 -0.572000
vn -0.713000 0.000000 0.701200
vn -0.002700 0.808600 0.588400
vn 0.819900 0.000000 0.572500
vn -0.894100 0.385500 0.227900
vn 0.850900 0.000000 -0.525300
vn -0.013600 -0.892200 0.451400
vn 0.938300 -0.000100 -0.345900
vn -0.537600 -0.748200 0.388800
vn -0.243500 -0.917400 0.314800
vn -0.502100 0.098500 0.859200
vn 0.175000 0.937200 -0.301700
vn 0.571100 -0.807000 -0.150300
vn -0.002700 -0.820200 -0.572000
vn 0.713000 0.000000 0.701200
vn -0.016700 0.832800 0.553300
vn -0.819900 0.000000 0.572500
vn 0.938300 0.000000 0.345900
vn 0.502200 -0.776200 0.381200
vn -0.007500 0.968400 -0.249500
vn -0.016200 -0.843500 -0.537000
vn 0.016700 0.832800 0.553300
vn -0.938300 0.000000 0.345900
vn -0.502200 -0.776200 0.381200
vn 0.007500 0.968400 -0.249500
vn 0.016200 -0.843500 -0.537000
vn 0.002700 0.808600 0.588400
vn 0.870000 0.370600 0.325100
vn -0.827500 0.419600 0.373100
vn -0.821700 0.569700 0.014300
vn -0.000400 -0.802100 -0.597200
vn 0.742100 -0.617200 -0.261300
vn -0.000400 -0.925200 -0.379400
vn -0.870000 0.370600 0.325100
vn 0.827500 0.419600 0.373100
vn 0.821700 0.569700 0.014300
vn 0.000400 -0.802100 -0.597200
vn -0.742100 -0.617200 -0.261300
vn 0.000400 -0.925200 -0.379400
vn 0.000000 -0.861100 -0.508400
usemtl Material.001
s off
f 1/1/1 2/2/1 3/3/1
f 4/3/2 5/1/2 6/4/2
f 3/3/3 2/1/3 6/4/3
f 2/3/4 7/5/4 6/2/4
f 1/1/5 11/5/5 12/3/5
f 3/3/6 5/2/6 11/5/6
f 5/1/7 4/3/7 11/5/7
f 1/1/8 13/6/8 14/2/8
f 12/3/9 11/5/9 13/6/9
f 11/5/10 15/2/10 14/2/10
f 4/3/11 15/2/11 11/5/11
f 1/1/12 3/3/12 11/5/12
f 1/1/13 7/4/13 2/2/13
f 11/5/14 16/7/14 13/6/14
f 14/2/15 16/7/15 11/5/15
f 13/6/16 16/7/16 14/2/16
f 1/1/17 12/3/17 13/6/17
f 14/2/18 15/2/18 4/4/18
f 6/4/19 7/2/19 4/3/19
f 1/1/20 9/1/20 8/7/20
f 4/4/21 10/4/21 9/1/21
f 4/3/22 7/2/22 8/7/22
f 23/8/23 24/9/23 25/10/23
f 26/3/24 27/4/24 28/11/24
f 29/3/25 22/4/25 27/2/25
f 26/1/26 23/12/26 22/2/26
f 25/10/27 24/9/27 26/3/27
f 26/1/28 30/8/28 23/12/28
f 23/8/29 30/8/29 24/9/29
f 24/9/30 30/8/30 26/3/30
f 27/4/31 26/3/31 29/1/31
f 31/10/32 32/4/32 27/2/32
f 27/4/33 32/4/33 28/11/33
f 28/11/34 32/4/34 31/10/34
f 25/10/35 31/10/35 22/2/35
f 39/10/36 40/9/36 41/8/36
f 42/3/37 43/11/37 44/4/37
f 45/3/38 44/2/38 38/4/38
f 38/2/39 41/12/39 42/1/39
f 42/3/40 40/9/40 39/10/40
f 42/1/41 41/12/41 46/8/41
f 41/8/42 40/9/42 46/8/42
f 40/9/43 42/3/43 46/8/43
f 44/4/44 45/1/44 42/3/44
f 44/2/45 47/4/45 48/10/45
f 44/4/46 43/11/46 47/4/46
f 43/11/47 39/10/47 48/10/47
f 39/10/48 38/2/48 48/10/48
f 5/2/3 3/3/3 6/4/3
f 4/4/8 1/1/8 14/2/8
f 7/4/20 1/1/20 8/7/20
f 1/1/21 4/4/21 9/1/21
f 10/4/22 4/3/22 8/7/22
f 22/2/49 23/8/49 25/10/49
f 29/3/50 26/1/50 22/2/50
f 28/11/51 25/10/51 26/3/51
f 22/4/52 31/10/52 27/2/52
f 25/10/53 28/11/53 31/10/53
f 38/2/54 39/10/54 41/8/54
f 45/3/55 38/2/55 42/1/55
f 43/11/56 42/3/56 39/10/56
f 38/4/57 44/2/57 48/10/57
f 47/4/58 43/11/58 48/10/58
usemtl Material.002
f 17/13/59 18/14/59 19/15/59
f 18/14/60 20/16/60 19/15/60
f 18/14/61 17/13/61 20/16/61
f 20/16/62 17/13/62 21/17/62
f 17/13/63 19/15/63 21/17/63
f 19/15/64 20/16/64 21/17/64
f 33/18/65 34/19/65 35/20/65
f 35/20/66 34/19/66 36/21/66
f 35/20/67 36/21/67 33/18/67
f 36/21/68 37/22/68 33/18/68
f 33/18/69 37/22/69 34/19/69
f 34/19/70 37/22/70 36/21/70
usemtl Material.003
f 8/7/71 9/1/71 10/4/71
