# Blender v2.71 (sub 0) OBJ File: 'bossWing.blend'
# www.blender.org
mtllib bossWing.mtl
o Cube
v -0.834123 -4.377291 -0.176697
v -0.835059 -4.377698 0.177517
v -1.179227 -4.297469 -0.177517
v -1.180163 -4.297877 0.176697
v -1.071804 -6.097741 -0.009459
v -1.379944 -6.025910 -0.327327
v -0.325265 -3.442744 0.011216
v -0.755247 -3.342509 -0.432341
v -0.757585 -3.343529 0.452726
v -1.381619 -6.026640 0.306941
v -1.689758 -5.954810 -0.010927
v -1.187568 -3.243295 0.009169
v -0.834591 -4.377494 0.000410
v -1.179695 -4.297672 -0.000410
v -1.006675 -4.337379 -0.177107
v 0.002728 0.001565 0.010193
v -1.007611 -4.337788 0.177107
v -2.429608 -10.494506 -0.010193
vn 0.021800 0.083800 -0.996200
vn -0.387800 0.142000 0.910800
vn 0.917600 -0.159800 -0.363900
vn -0.955700 0.294200 -0.002200
vn 0.878100 -0.478500 0.001800
vn 0.990600 -0.136600 0.002500
vn 0.921600 -0.162800 0.352500
vn 0.528300 -0.163300 0.833200
vn 0.014600 0.073400 0.997200
vn -0.060700 -0.252400 0.965700
vn -0.052200 -0.235800 -0.970400
vn -0.790400 0.143400 -0.595500
vn 0.489900 -0.151100 -0.858600
vn -1.000000 -0.007400 -0.002600
vn -0.421500 0.154900 -0.893500
vn -0.771000 0.136700 0.622000
vn -0.861200 0.254000 0.440300
vn 0.408700 -0.039200 -0.911800
vn 0.366800 -0.034700 0.929600
vn 0.816800 -0.229200 0.529500
vn -0.566500 0.092200 -0.818900
vn 0.836900 -0.231800 -0.495800
vn -0.849500 0.253800 -0.462500
vn -0.614000 0.100200 0.782900
usemtl Material
s off
f 6//1 3//1 15//1
f 1//1 6//1 15//1
f 16//2 12//2 4//2
f 1//3 8//3 16//3
f 3//4 11//4 14//4
f 1//5 7//5 13//5
f 1//6 13//6 5//6
f 16//7 9//7 2//7
f 18//8 5//8 2//8
f 2//9 17//9 10//9
f 2//10 9//10 17//10
f 1//11 15//11 8//11
f 13//5 7//5 2//5
f 3//12 6//12 18//12
f 1//13 5//13 18//13
f 5//6 13//6 2//6
f 15//11 3//11 8//11
f 3//14 14//14 12//14
f 3//15 12//15 16//15
f 18//16 10//16 4//16
f 14//14 4//14 12//14
f 17//9 4//9 10//9
f 11//4 4//4 14//4
f 9//10 4//10 17//10
f 9//17 16//17 4//17
f 7//18 1//18 16//18
f 7//19 16//19 2//19
f 10//20 18//20 2//20
f 11//21 3//21 18//21
f 6//22 1//22 18//22
f 8//23 3//23 16//23
f 11//24 18//24 4//24
