# Blender v2.71 (sub 0) OBJ File: 'IX.blend'
# www.blender.org
mtllib IX.mtl
o Cube
v 0.763306 -0.763306 -1.600268
v 0.696723 -0.696723 2.120384
v -0.696723 -0.696723 2.120384
v -0.763306 -0.763306 -1.600268
v 0.763307 0.763306 -1.600267
v 0.696722 0.696723 2.120385
v -0.696724 0.696723 2.120384
v -0.763306 0.763306 -1.600268
v 0.811893 -0.811892 0.158733
v 0.000000 -1.036354 -1.600268
v 1.036354 0.000000 -1.600268
v -0.000000 -1.145115 2.120384
v 1.207018 0.000000 2.120384
v -0.811892 -0.811892 0.158732
v -1.207019 0.000000 2.120384
v -1.036353 0.000000 -1.600268
v 0.811892 0.811892 0.158733
v 0.000000 1.036354 -1.600268
v -0.000001 1.660622 2.120384
v -0.811893 0.811892 0.158732
v 0.000000 -1.058974 0.158732
v -0.000000 1.058974 0.158733
v 1.058974 0.000000 0.158733
v -0.000001 0.000000 11.503603
v -1.058974 0.000000 0.158732
v 0.000001 0.000000 -3.214106
v -1.243761 -1.243761 -0.828531
v -1.243761 1.243761 -0.828531
v 1.243761 -1.243761 -0.828530
v 1.243761 1.243761 -0.828530
v 0.000000 -1.622273 -1.017786
v 0.000000 1.622273 -1.017786
v 1.622273 0.000000 -1.017786
v -1.622272 0.000000 -1.017787
v 0.000000 -1.058974 0.158732
v -0.811892 -0.811892 0.158732
v 0.811893 -0.811892 0.158733
v -0.000000 1.058974 0.158733
v 0.811892 0.811892 0.158733
v -0.811893 0.811892 0.158732
v 1.058974 0.000000 0.158733
v -1.058974 0.000000 0.158732
vn -0.000100 0.000000 -1.000000
vn -0.736700 0.263500 -0.622700
vn -0.264700 -0.869800 0.416400
vn 0.264700 -0.869800 0.416400
vn 0.264700 0.869800 0.416400
vn -0.192900 0.865200 0.462800
vn 0.869800 -0.264700 0.416400
vn 0.865200 0.192900 0.462800
vn -0.802400 -0.587700 0.103200
vn 0.685600 -0.722600 0.088200
vn -0.000100 -0.000100 -1.000000
vn -0.671000 -0.306900 -0.675000
vn -0.807700 0.583800 0.081700
vn -0.539400 -0.838100 0.080900
vn -0.804100 0.588900 0.081800
vn 0.539400 -0.838100 0.080900
vn 0.279400 0.918000 -0.281500
vn 0.954200 -0.290400 -0.072000
vn -0.954200 -0.290400 -0.072000
vn 0.804100 0.588900 0.081800
vn -0.865200 0.192900 0.462800
vn -0.306900 -0.671000 -0.675000
vn 0.306900 -0.671000 -0.675000
vn 0.306900 0.671000 -0.675000
vn -0.263500 0.736700 -0.622700
vn 0.671000 -0.306900 -0.675000
vn 0.736700 0.263500 -0.622700
vn -0.869800 -0.264700 0.416400
vn -0.804600 0.584800 0.103500
vn -0.671000 0.306900 -0.675000
vn -0.192900 -0.865200 0.462800
vn 0.192900 -0.865200 0.462800
vn 0.192900 0.865200 0.462800
vn -0.264700 0.869800 0.416400
vn 0.865200 -0.192900 0.462800
vn 0.869800 0.264700 0.416400
vn -0.538400 -0.836500 0.102100
vn 0.000000 0.000000 1.000000
vn 0.804600 0.584800 0.103500
vn -0.736700 -0.263500 -0.622700
vn -0.279400 0.918000 -0.281500
vn -0.290900 -0.955800 -0.042000
vn -0.954200 0.290400 -0.072000
vn 0.290900 -0.955800 -0.042000
vn 0.807700 0.583800 0.081700
vn 0.804100 -0.588900 0.081800
vn -0.804100 -0.588900 0.081800
vn 0.954200 0.290400 -0.072000
vn -0.869800 0.264700 0.416400
vn -0.263500 -0.736700 -0.622700
vn 0.263500 -0.736700 -0.622700
vn 0.263500 0.736700 -0.622700
vn -0.306900 0.671000 -0.675000
vn 0.736700 -0.263500 -0.622700
vn 0.671000 0.306900 -0.675000
vn -0.865200 -0.192900 0.462800
vn 0.000000 0.000000 -1.000000
vn -0.643800 0.643800 -0.413500
vn 0.643800 0.643800 -0.413500
vn -0.643800 -0.643800 -0.413500
vn 0.643800 -0.643800 -0.413500
usemtl Material
s off
f 19//1 7//1 15//1
f 28//2 8//2 16//2
f 31//3 21//3 14//3
f 9//4 21//4 31//4
f 32//5 22//5 17//5
f 32//6 28//6 20//6
f 33//7 23//7 9//7
f 33//8 30//8 17//8
f 24//9 15//9 3//9
f 13//10 24//10 12//10
f 13//11 6//11 19//11
f 27//12 34//12 16//12
f 40//13 7//13 19//13
f 12//14 3//14 36//14
f 15//15 7//15 40//15
f 37//16 2//16 12//16
f 39//17 38//17 19//17
f 37//18 41//18 13//18
f 15//19 25//19 36//19
f 39//20 6//20 13//20
f 20//21 28//21 34//21
f 10//22 31//22 27//22
f 29//23 31//23 10//23
f 18//24 32//24 30//24
f 18//25 8//25 28//25
f 11//26 33//26 29//26
f 11//27 5//27 30//27
f 14//28 42//28 34//28
f 24//29 19//29 15//29
f 34//30 28//30 16//30
f 27//31 31//31 14//31
f 29//32 9//32 31//32
f 30//33 32//33 17//33
f 22//34 32//34 20//34
f 29//35 33//35 9//35
f 23//36 33//36 17//36
f 12//37 24//37 3//37
f 2//38 13//38 12//38
f 24//39 13//39 19//39
f 4//40 27//40 16//40
f 38//41 40//41 19//41
f 35//42 12//42 36//42
f 25//43 15//43 40//43
f 35//44 37//44 12//44
f 6//45 39//45 19//45
f 2//46 37//46 13//46
f 3//47 15//47 36//47
f 41//48 39//48 13//48
f 42//49 20//49 34//49
f 4//50 10//50 27//50
f 1//51 29//51 10//51
f 5//52 18//52 30//52
f 32//53 18//53 28//53
f 1//54 11//54 29//54
f 33//55 11//55 30//55
f 27//56 14//56 34//56
usemtl Material.006
f 10//57 4//57 16//57
f 18//58 26//58 16//58
f 11//59 26//59 18//59
f 11//57 1//57 10//57
f 26//60 10//60 16//60
f 8//57 18//57 16//57
f 5//57 11//57 18//57
f 26//61 11//61 10//61
o Cube.001_Cube.002
v 2.655633 0.942834 -0.106303
v 3.717274 1.946423 -1.497076
v 3.260585 2.435217 -1.433693
v 2.155301 1.598085 -0.036863
v 2.177237 0.641558 -0.710354
v 3.280609 1.671428 -2.048435
v 2.823921 2.269521 -1.985052
v 1.676905 1.296809 -0.640914
v 3.208872 1.398733 -0.735775
v 2.491032 1.324346 0.036457
v 2.505923 0.674999 -0.420747
v 3.629444 2.333960 -1.287964
v 3.645325 1.809629 -1.793072
v 2.676692 2.095693 -0.661916
v 2.875010 2.325549 -1.686161
v 1.826614 1.564644 -0.326468
v 2.700025 1.078280 -1.378276
v 1.841506 0.915298 -0.783673
v 2.750207 1.780249 -2.398140
v 2.167845 1.775240 -1.304416
v 3.020210 1.795974 -0.601080
v 2.356507 1.377998 -1.439111
v 3.035427 1.132454 -1.068264
v 6.055637 4.600016 -5.189692
v 2.341290 2.041518 -0.971927
v 1.687264 0.691210 0.219528
v 2.377457 2.104085 -0.108540
v 1.597940 1.613174 -1.092804
v 3.192717 1.036393 -0.221688
v 2.413200 0.545482 -1.205952
v 2.847529 1.594675 0.054213
v 1.830782 0.954366 -1.229590
v 2.870838 0.578210 -0.661479
v 1.807472 1.970831 -0.513897
v 3.020210 1.795974 -0.601080
v 2.676692 2.095693 -0.661916
v 3.208872 1.398733 -0.735775
v 2.356507 1.377998 -1.439111
v 2.700025 1.078280 -1.378276
v 2.167845 1.775240 -1.304416
v 3.035427 1.132454 -1.068264
v 2.341290 2.041518 -0.971927
v -2.702530 0.942834 -0.106303
v -3.764172 1.946423 -1.497076
v -3.307483 2.435217 -1.433693
v -2.202199 1.598085 -0.036863
v -2.224134 0.641558 -0.710354
v -3.327506 1.671428 -2.048435
v -2.870819 2.269521 -1.985052
v -1.723803 1.296809 -0.640914
v -3.255770 1.398733 -0.735775
v -2.537929 1.324346 0.036457
v -2.552820 0.674999 -0.420747
v -3.676342 2.333960 -1.287964
v -3.692223 1.809629 -1.793072
v -2.723589 2.095693 -0.661916
v -2.921908 2.325549 -1.686161
v -1.873512 1.564644 -0.326468
v -2.746922 1.078280 -1.378276
v -1.888403 0.915298 -0.783673
v -2.797104 1.780249 -2.398140
v -2.214743 1.775240 -1.304416
v -3.067108 1.795974 -0.601080
v -2.403404 1.377998 -1.439111
v -3.082324 1.132454 -1.068264
v -6.102535 4.600016 -5.189692
v -2.388188 2.041518 -0.971927
v -1.734162 0.691210 0.219528
v -2.424354 2.104085 -0.108540
v -1.644837 1.613174 -1.092804
v -3.239614 1.036393 -0.221688
v -2.460098 0.545482 -1.205952
v -2.894426 1.594675 0.054213
v -1.877679 0.954366 -1.229590
v -2.917736 0.578210 -0.661479
v -1.854369 1.970831 -0.513897
v -3.067108 1.795974 -0.601080
v -2.723589 2.095693 -0.661916
v -3.255770 1.398733 -0.735775
v -2.403404 1.377998 -1.439111
v -2.746922 1.078280 -1.378276
v -2.214743 1.775240 -1.304416
v -3.082324 1.132454 -1.068264
v -2.388188 2.041518 -0.971927
v 2.655633 -0.599309 -0.106303
v 3.717274 -1.602898 -1.497076
v 3.260585 -2.091692 -1.433693
v 2.155301 -1.254560 -0.036863
v 2.177237 -0.298033 -0.710354
v 3.280609 -1.327903 -2.048435
v 2.823921 -1.925996 -1.985052
v 1.676905 -0.953284 -0.640914
v 3.208872 -1.055208 -0.735775
v 2.491032 -0.980821 0.036457
v 2.505923 -0.331474 -0.420747
v 3.629444 -1.990435 -1.287964
v 3.645325 -1.466104 -1.793072
v 2.676692 -1.752168 -0.661916
v 2.875010 -1.982024 -1.686161
v 1.826614 -1.221119 -0.326468
v 2.700025 -0.734755 -1.378276
v 1.841506 -0.571773 -0.783673
v 2.750207 -1.436724 -2.398140
v 2.167845 -1.431715 -1.304416
v 3.020210 -1.452449 -0.601080
v 2.356507 -1.034473 -1.439111
v 3.035427 -0.788929 -1.068264
v 6.055637 -4.256491 -5.189692
v 2.341290 -1.697993 -0.971927
v 1.687264 -0.347685 0.219528
v 2.377457 -1.760560 -0.108540
v 1.597940 -1.269649 -1.092804
v 3.192717 -0.692868 -0.221688
v 2.413200 -0.201957 -1.205952
v 2.847529 -1.251150 0.054213
v 1.830782 -0.610841 -1.229590
v 2.870838 -0.234685 -0.661479
v 1.807472 -1.627306 -0.513897
v 3.020210 -1.452449 -0.601080
v 2.676692 -1.752168 -0.661916
v 3.208872 -1.055208 -0.735775
v 2.356507 -1.034473 -1.439111
v 2.700025 -0.734755 -1.378276
v 2.167845 -1.431715 -1.304416
v 3.035427 -0.788929 -1.068264
v 2.341290 -1.697993 -0.971927
v -2.702530 -0.599309 -0.106303
v -3.764172 -1.602898 -1.497076
v -3.307483 -2.091692 -1.433693
v -2.202199 -1.254560 -0.036863
v -2.224134 -0.298033 -0.710354
v -3.327506 -1.327903 -2.048435
v -2.870819 -1.925996 -1.985052
v -1.723803 -0.953284 -0.640914
v -3.255770 -1.055208 -0.735775
v -2.537929 -0.980821 0.036457
v -2.552820 -0.331474 -0.420747
v -3.676342 -1.990435 -1.287964
v -3.692223 -1.466104 -1.793072
v -2.723589 -1.752168 -0.661916
v -2.921908 -1.982024 -1.686161
v -1.873512 -1.221119 -0.326468
v -2.746922 -0.734755 -1.378276
v -1.888403 -0.571773 -0.783673
v -2.797104 -1.436724 -2.398140
v -2.214743 -1.431715 -1.304416
v -3.067108 -1.452449 -0.601080
v -2.403404 -1.034473 -1.439111
v -3.082324 -0.788929 -1.068264
v -6.102535 -4.256491 -5.189692
v -2.388188 -1.697993 -0.971927
v -1.734162 -0.347685 0.219528
v -2.424354 -1.760560 -0.108540
v -1.644837 -1.269649 -1.092804
v -3.239614 -0.692868 -0.221688
v -2.460098 -0.201957 -1.205952
v -2.894426 -1.251150 0.054213
v -1.877679 -0.610841 -1.229590
v -2.917736 -0.234685 -0.661479
v -1.854369 -1.627306 -0.513897
v -3.067108 -1.452449 -0.601080
v -2.723589 -1.752168 -0.661916
v -3.255770 -1.055208 -0.735775
v -2.403404 -1.034473 -1.439111
v -2.746922 -0.734755 -1.378276
v -2.214743 -1.431715 -1.304416
v -3.082324 -0.788929 -1.068264
v -2.388188 -1.697993 -0.971927
vn 0.985900 -0.007400 -0.167100
vn -0.547700 -0.490100 0.678200
vn -0.396700 0.891500 0.218600
vn 0.800400 -0.594100 0.080000
vn 0.207100 -0.800100 -0.563000
vn -0.781300 0.467200 -0.413900
vn -0.988100 0.072800 -0.135600
vn -0.209400 -0.947000 -0.243700
vn 0.069200 0.892800 0.445100
vn -0.704900 0.685700 -0.181500
vn 0.855100 -0.082400 0.511800
vn -0.516100 -0.693500 -0.502700
vn 0.783600 -0.615600 0.084200
vn -0.341200 0.932800 0.116000
vn 0.506400 -0.814700 -0.282400
vn -0.985900 -0.007400 -0.167100
vn 0.547700 -0.490100 0.678200
vn 0.396700 0.891500 0.218600
vn -0.865200 -0.071700 0.496300
vn -0.207100 -0.800100 -0.563000
vn 0.781300 0.467200 -0.413900
vn 0.209400 -0.947000 -0.243700
vn -0.535200 -0.478100 0.696400
vn -0.069200 0.892800 0.445100
vn 0.704900 0.685700 -0.181500
vn -0.705600 0.097100 0.701900
vn -0.195600 -0.812300 -0.549500
vn -0.788800 -0.608100 0.089300
vn 0.312200 0.933800 0.174600
vn -0.506400 -0.814700 -0.282400
vn 0.985900 0.007400 -0.167100
vn -0.547700 0.490100 0.678200
vn -0.396700 -0.891500 0.218600
vn 0.865200 0.071700 0.496300
vn 0.207100 0.800100 -0.563000
vn -0.781300 -0.467200 -0.413900
vn -0.209400 0.947000 -0.243700
vn 0.535200 0.478100 0.696400
vn 0.069200 -0.892800 0.445100
vn -0.704900 -0.685700 -0.181500
vn 0.705600 -0.097100 0.701900
vn 0.195600 0.812300 -0.549500
vn 0.788800 0.608100 0.089300
vn -0.312200 -0.933800 0.174600
vn 0.506400 0.814700 -0.282400
vn -0.985900 0.007400 -0.167100
vn 0.547700 0.490100 0.678200
vn 0.396700 -0.891500 0.218600
vn -0.800400 0.594100 0.080000
vn -0.207100 0.800100 -0.563000
vn 0.781300 -0.467200 -0.413900
vn 0.988100 -0.072800 -0.135600
vn 0.209400 0.947000 -0.243700
vn -0.069200 -0.892800 0.445100
vn 0.704900 -0.685700 -0.181500
vn -0.855100 0.082400 0.511800
vn 0.516100 0.693500 -0.502700
vn -0.783600 0.615600 0.084200
vn 0.341200 -0.932800 0.116000
vn -0.506400 0.814700 -0.282400
vn -0.754900 0.577800 -0.310200
vn -0.243500 0.541800 0.804500
vn 0.031000 0.855800 0.516300
vn 0.865200 -0.071700 0.496300
vn 0.513200 -0.805100 -0.297300
vn -0.853900 -0.251000 -0.455800
vn 0.535200 -0.478100 0.696400
vn 0.353800 0.557900 0.750700
vn -0.536200 0.841500 -0.066100
vn 0.705600 0.097100 0.701900
vn 0.195600 -0.812300 -0.549500
vn 0.788800 -0.608100 0.089300
vn -0.312200 0.933800 0.174600
vn 0.465500 -0.807400 -0.362600
vn 0.754900 0.577800 -0.310200
vn 0.243500 0.541800 0.804500
vn -0.031000 0.855800 0.516300
vn -0.800400 -0.594100 0.080000
vn -0.513200 -0.805100 -0.297300
vn 0.853900 -0.251000 -0.455800
vn 0.988100 0.072800 -0.135600
vn -0.353800 0.557900 0.750700
vn 0.536200 0.841500 -0.066100
vn -0.855100 -0.082400 0.511800
vn 0.516100 -0.693500 -0.502700
vn -0.783600 -0.615600 0.084200
vn 0.341200 0.932800 0.116000
vn -0.465500 -0.807400 -0.362600
vn -0.754900 -0.577800 -0.310200
vn -0.243500 -0.541800 0.804500
vn 0.031000 -0.855800 0.516300
vn 0.800400 0.594100 0.080000
vn 0.513200 0.805100 -0.297300
vn -0.853900 0.251000 -0.455800
vn -0.988100 -0.072800 -0.135600
vn 0.353800 -0.557900 0.750700
vn -0.536200 -0.841500 -0.066100
vn 0.855100 0.082400 0.511800
vn -0.516100 0.693500 -0.502700
vn 0.783600 0.615600 0.084200
vn -0.341200 -0.932800 0.116000
vn 0.465500 0.807400 -0.362600
vn 0.754900 -0.577800 -0.310200
vn 0.243500 -0.541800 0.804500
vn -0.031000 -0.855800 0.516300
vn -0.865200 0.071700 0.496300
vn -0.513200 0.805100 -0.297300
vn 0.853900 0.251000 -0.455800
vn -0.535200 0.478100 0.696400
vn -0.353800 -0.557900 0.750700
vn 0.536200 -0.841500 -0.066100
vn -0.705600 -0.097100 0.701900
vn -0.195600 0.812300 -0.549500
vn -0.788800 0.608100 0.089300
vn 0.312200 -0.933800 0.174600
vn -0.465500 0.807400 -0.362600
vn -0.939000 0.182300 0.291700
vn 0.570900 0.730400 0.374800
vn 0.891100 0.311200 0.330400
vn -0.114800 -0.322300 -0.939700
vn -0.363400 0.064500 -0.929400
vn 0.907100 -0.388400 -0.162200
vn 0.665200 -0.528600 -0.527300
vn -0.598000 0.312400 0.738100
vn -0.381300 0.841800 -0.382100
vn -0.167300 0.156600 0.973400
vn 0.203900 -0.329500 0.921900
vn -0.572000 -0.818200 -0.057900
vn -0.926400 -0.364700 -0.093500
vn 0.213600 -0.750400 0.625500
vn -0.047900 -0.984600 0.168100
vn -0.144900 0.989300 -0.016200
vn 0.939000 0.182300 0.291700
vn -0.637100 0.694600 0.334000
vn -0.891100 0.311200 0.330400
vn 0.114800 -0.322300 -0.939700
vn 0.434900 0.097000 -0.895200
vn -0.907100 -0.388400 -0.162200
vn -0.601000 -0.581200 -0.548700
vn 0.634200 0.374300 0.676600
vn 0.381300 0.841800 -0.382100
vn 0.074400 0.171800 0.982300
vn -0.203900 -0.329500 0.921900
vn 0.572000 -0.818200 -0.057900
vn 0.943200 -0.332000 -0.006400
vn -0.213600 -0.750400 0.625500
vn 0.141300 -0.973900 0.177300
vn 0.158200 0.982300 -0.100400
vn -0.939000 -0.182300 0.291700
vn 0.637100 -0.694600 0.334000
vn 0.891100 -0.311200 0.330400
vn -0.114800 0.322300 -0.939700
vn -0.434900 -0.097000 -0.895200
vn 0.907100 0.388400 -0.162200
vn 0.601000 0.581200 -0.548700
vn -0.634200 -0.374300 0.676600
vn -0.381300 -0.841800 -0.382100
vn -0.074400 -0.171800 0.982300
vn 0.203900 0.329500 0.921900
vn -0.572000 0.818200 -0.057900
vn -0.943200 0.332000 -0.006400
vn 0.213600 0.750400 0.625500
vn -0.141300 0.973900 0.177300
vn -0.158200 -0.982300 -0.100400
vn 0.939000 -0.182300 0.291700
vn -0.570900 -0.730400 0.374800
vn -0.891100 -0.311200 0.330400
vn 0.114800 0.322300 -0.939700
vn 0.363400 -0.064500 -0.929400
vn -0.907100 0.388400 -0.162200
vn -0.665200 0.528600 -0.527300
vn 0.598000 -0.312400 0.738100
vn 0.381300 -0.841800 -0.382100
vn 0.167300 -0.156600 0.973400
vn -0.203900 0.329500 0.921900
vn 0.572000 0.818200 -0.057900
vn 0.926400 0.364700 -0.093500
vn -0.213600 0.750400 0.625500
vn 0.047900 0.984600 0.168100
vn 0.144900 -0.989300 -0.016200
vn -0.952900 0.088900 0.290000
vn 0.637100 0.694600 0.334000
vn 0.870400 0.389100 0.301600
vn -0.130200 -0.241000 -0.961800
vn -0.434900 0.097000 -0.895200
vn 0.888200 -0.388200 -0.245700
vn 0.601000 -0.581200 -0.548700
vn -0.634200 0.374300 0.676600
vn -0.451000 0.796500 -0.402700
vn -0.074400 0.171800 0.982300
vn 0.244300 -0.245600 0.938100
vn -0.607700 -0.782200 -0.137700
vn -0.943200 -0.332000 -0.006400
vn 0.256900 -0.792700 0.552900
vn -0.141300 -0.973900 0.177300
vn -0.158200 0.982300 -0.100400
vn 0.952900 0.088900 0.290000
vn -0.570900 0.730400 0.374800
vn -0.870400 0.389100 0.301600
vn 0.130200 -0.241000 -0.961800
vn 0.363400 0.064500 -0.929400
vn -0.888200 -0.388200 -0.245700
vn -0.665200 -0.528600 -0.527300
vn 0.598000 0.312400 0.738100
vn 0.451000 0.796500 -0.402700
vn 0.167300 0.156600 0.973400
vn -0.244300 -0.245600 0.938100
vn 0.607700 -0.782200 -0.137700
vn 0.926400 -0.364700 -0.093500
vn -0.256900 -0.792700 0.552900
vn 0.047900 -0.984600 0.168100
vn 0.144900 0.989300 -0.016200
vn -0.952900 -0.088900 0.290000
vn 0.570900 -0.730400 0.374800
vn 0.870400 -0.389100 0.301600
vn -0.130200 0.241000 -0.961800
vn -0.363400 -0.064500 -0.929400
vn 0.888200 0.388200 -0.245700
vn 0.665200 0.528600 -0.527300
vn -0.598000 -0.312400 0.738100
vn -0.451000 -0.796500 -0.402700
vn -0.167300 -0.156600 0.973400
vn 0.244300 0.245600 0.938100
vn -0.607700 0.782200 -0.137700
vn -0.926400 0.364700 -0.093500
vn 0.256900 0.792700 0.552900
vn -0.047900 0.984600 0.168100
vn -0.144900 -0.989300 -0.016200
vn 0.952900 -0.088900 0.290000
vn -0.637100 -0.694600 0.334000
vn -0.870400 -0.389100 0.301600
vn 0.130200 0.241000 -0.961800
vn 0.434900 -0.097000 -0.895200
vn -0.888200 0.388200 -0.245700
vn -0.601000 0.581200 -0.548700
vn 0.634200 -0.374300 0.676600
vn 0.451000 -0.796500 -0.402700
vn 0.074400 -0.171800 0.982300
vn -0.244300 0.245600 0.938100
vn 0.607700 0.782200 -0.137700
vn 0.943200 0.332000 -0.006400
vn -0.256900 0.792700 0.552900
vn 0.141300 0.973900 0.177300
vn 0.158200 -0.982300 -0.100400
usemtl Material.002
s off
f 61//62 49//62 57//62
f 52//63 46//63 58//63
f 66//64 57//64 45//64
f 44//65 55//65 66//65
f 48//66 61//66 66//66
f 82//67 49//67 61//67
f 60//68 68//68 58//68
f 53//69 68//69 60//69
f 53//63 43//63 52//63
f 54//70 45//70 78//70
f 49//71 82//71 67//71
f 79//72 44//72 54//72
f 81//73 80//73 61//73
f 79//74 83//74 55//74
f 45//75 57//75 67//75
f 81//76 48//76 55//76
f 99//77 91//77 103//77
f 100//78 88//78 94//78
f 87//79 99//79 108//79
f 86//80 96//80 108//80
f 108//81 103//81 90//81
f 103//82 91//82 124//82
f 102//78 92//78 100//78
f 102//83 110//83 95//83
f 95//84 110//84 94//84
f 120//85 87//85 96//85
f 109//86 124//86 91//86
f 121//87 119//87 96//87
f 123//88 90//88 103//88
f 121//89 86//89 97//89
f 87//90 120//90 109//90
f 97//91 90//91 123//91
f 141//92 133//92 145//92
f 142//93 130//93 136//93
f 129//94 141//94 150//94
f 128//95 138//95 150//95
f 150//96 145//96 132//96
f 145//97 133//97 166//97
f 144//93 134//93 142//93
f 144//98 152//98 137//98
f 137//99 152//99 136//99
f 162//100 129//100 138//100
f 151//101 166//101 133//101
f 163//102 161//102 138//102
f 165//103 132//103 145//103
f 163//104 128//104 139//104
f 129//105 162//105 151//105
f 139//106 132//106 165//106
f 187//107 175//107 183//107
f 178//108 172//108 184//108
f 192//109 183//109 171//109
f 170//110 181//110 192//110
f 174//111 187//111 192//111
f 208//112 175//112 187//112
f 186//113 194//113 184//113
f 179//114 194//114 186//114
f 179//108 169//108 178//108
f 180//115 171//115 204//115
f 175//116 208//116 193//116
f 205//117 170//117 180//117
f 207//118 206//118 187//118
f 205//119 209//119 181//119
f 171//120 183//120 193//120
f 207//121 174//121 181//121
f 66//122 61//122 57//122
f 68//123 52//123 58//123
f 54//124 66//124 45//124
f 54//125 44//125 66//125
f 55//126 48//126 66//126
f 80//127 82//127 61//127
f 50//63 60//63 58//63
f 47//63 53//63 60//63
f 68//128 53//128 52//128
f 77//129 54//129 78//129
f 57//130 49//130 67//130
f 77//131 79//131 54//131
f 48//132 81//132 61//132
f 44//133 79//133 55//133
f 78//134 45//134 67//134
f 83//135 81//135 55//135
f 108//136 99//136 103//136
f 110//137 100//137 94//137
f 96//138 87//138 108//138
f 97//139 86//139 108//139
f 97//140 108//140 90//140
f 122//141 103//141 124//141
f 110//142 102//142 100//142
f 89//78 102//78 95//78
f 85//78 95//78 94//78
f 119//143 120//143 96//143
f 99//144 109//144 91//144
f 86//145 121//145 96//145
f 122//146 123//146 103//146
f 125//147 121//147 97//147
f 99//148 87//148 109//148
f 125//149 97//149 123//149
f 150//150 141//150 145//150
f 152//151 142//151 136//151
f 138//152 129//152 150//152
f 139//153 128//153 150//153
f 139//154 150//154 132//154
f 164//155 145//155 166//155
f 152//156 144//156 142//156
f 131//93 144//93 137//93
f 127//93 137//93 136//93
f 161//157 162//157 138//157
f 141//158 151//158 133//158
f 128//159 163//159 138//159
f 164//160 165//160 145//160
f 167//161 163//161 139//161
f 141//162 129//162 151//162
f 167//163 139//163 165//163
f 192//164 187//164 183//164
f 194//165 178//165 184//165
f 180//166 192//166 171//166
f 180//167 170//167 192//167
f 181//168 174//168 192//168
f 206//169 208//169 187//169
f 176//108 186//108 184//108
f 173//108 179//108 186//108
f 194//170 179//170 178//170
f 203//171 180//171 204//171
f 183//172 175//172 193//172
f 203//173 205//173 180//173
f 174//174 207//174 187//174
f 170//175 205//175 181//175
f 204//176 171//176 193//176
f 209//177 207//177 181//177
usemtl Material.007
f 70//178 50//178 58//178
f 73//179 63//179 56//179
f 51//180 63//180 73//180
f 74//181 64//181 59//181
f 74//182 70//182 62//182
f 75//183 65//183 51//183
f 75//184 72//184 59//184
f 69//185 76//185 58//185
f 62//186 70//186 76//186
f 52//187 73//187 69//187
f 71//188 73//188 52//188
f 60//189 74//189 72//189
f 60//190 50//190 70//190
f 53//191 75//191 71//191
f 53//192 47//192 72//192
f 56//193 84//193 76//193
f 100//194 92//194 112//194
f 115//195 111//195 98//195
f 115//196 105//196 93//196
f 101//197 106//197 116//197
f 116//198 106//198 104//198
f 93//199 107//199 117//199
f 117//200 107//200 101//200
f 111//201 88//201 100//201
f 118//202 112//202 104//202
f 94//203 88//203 111//203
f 94//204 115//204 113//204
f 114//205 116//205 102//205
f 102//206 116//206 112//206
f 113//207 117//207 95//207
f 95//208 117//208 114//208
f 98//209 111//209 118//209
f 142//210 134//210 154//210
f 157//211 153//211 140//211
f 157//212 147//212 135//212
f 143//213 148//213 158//213
f 158//214 148//214 146//214
f 135//215 149//215 159//215
f 159//216 149//216 143//216
f 153//217 130//217 142//217
f 160//218 154//218 146//218
f 136//219 130//219 153//219
f 136//220 157//220 155//220
f 156//221 158//221 144//221
f 144//222 158//222 154//222
f 155//223 159//223 137//223
f 137//224 159//224 156//224
f 140//225 153//225 160//225
f 196//226 176//226 184//226
f 199//227 189//227 182//227
f 177//228 189//228 199//228
f 200//229 190//229 185//229
f 200//230 196//230 188//230
f 201//231 191//231 177//231
f 201//232 198//232 185//232
f 195//233 202//233 184//233
f 188//234 196//234 202//234
f 178//235 199//235 195//235
f 197//236 199//236 178//236
f 186//237 200//237 198//237
f 186//238 176//238 196//238
f 179//239 201//239 197//239
f 179//240 173//240 198//240
f 182//241 210//241 202//241
f 76//242 70//242 58//242
f 69//243 73//243 56//243
f 71//244 51//244 73//244
f 72//245 74//245 59//245
f 64//246 74//246 62//246
f 71//247 75//247 51//247
f 65//248 75//248 59//248
f 46//249 69//249 58//249
f 84//250 62//250 76//250
f 46//251 52//251 69//251
f 43//252 71//252 52//252
f 47//253 60//253 72//253
f 74//254 60//254 70//254
f 43//255 53//255 71//255
f 75//256 53//256 72//256
f 69//257 56//257 76//257
f 118//258 100//258 112//258
f 105//259 115//259 98//259
f 113//260 115//260 93//260
f 114//261 101//261 116//261
f 112//262 116//262 104//262
f 113//263 93//263 117//263
f 114//264 117//264 101//264
f 118//265 111//265 100//265
f 126//266 118//266 104//266
f 115//267 94//267 111//267
f 85//268 94//268 113//268
f 89//269 114//269 102//269
f 92//270 102//270 112//270
f 85//271 113//271 95//271
f 89//272 95//272 114//272
f 126//273 98//273 118//273
f 160//274 142//274 154//274
f 147//275 157//275 140//275
f 155//276 157//276 135//276
f 156//277 143//277 158//277
f 154//278 158//278 146//278
f 155//279 135//279 159//279
f 156//280 159//280 143//280
f 160//281 153//281 142//281
f 168//282 160//282 146//282
f 157//283 136//283 153//283
f 127//284 136//284 155//284
f 131//285 156//285 144//285
f 134//286 144//286 154//286
f 127//287 155//287 137//287
f 131//288 137//288 156//288
f 168//289 140//289 160//289
f 202//290 196//290 184//290
f 195//291 199//291 182//291
f 197//292 177//292 199//292
f 198//293 200//293 185//293
f 190//294 200//294 188//294
f 197//295 201//295 177//295
f 191//296 201//296 185//296
f 172//297 195//297 184//297
f 210//298 188//298 202//298
f 172//299 178//299 195//299
f 169//300 197//300 178//300
f 173//301 186//301 198//301
f 200//302 186//302 196//302
f 169//303 179//303 197//303
f 201//304 179//304 198//304
f 195//305 182//305 202//305
